<svg width="9" height="14" viewBox="0 0 9 14" fill="none" xmlns="http://www.w3.org/2000/svg">
<path d="M8.00156 7.54628L1.77138 13.7763C1.62729 13.9206 1.43493 14 1.22983 14C1.02472 14 0.832368 13.9206 0.688271 13.7763L0.229462 13.3176C-0.0690888 13.0188 -0.0690888 12.533 0.229462 12.2345L5.4611 7.0029L0.223657 1.76547C0.0795604 1.62126 0 1.42901 0 1.22402C0 1.0188 0.0795604 0.826562 0.223657 0.682239L0.682466 0.223657C0.826676 0.0794468 1.01892 0 1.22402 0C1.42913 0 1.62148 0.0794468 1.76558 0.223657L8.00156 6.45941C8.146 6.60408 8.22533 6.79723 8.22488 7.00256C8.22533 7.20869 8.146 7.40173 8.00156 7.54628Z" fill="#D64374"/>
</svg>
